/* XPM */
static char * bitcoin32_xpm[] = {
"32 32 214 2",
"  	c None",
". 	c #0F3100",
"+ 	c #CF0500",
"@ 	c #0E3100",
"# 	c #022C00",
"$ 	c #092F00",
"% 	c #263A00",
"& 	c #293B00",
"* 	c #123200",
"= 	c #002A00",
"- 	c #0E3000",
"; 	c #D00500",
"> 	c #133300",
", 	c #7D5C00",
"' 	c #D67E00",
") 	c #FF8E00",
"! 	c #F28900",
"~ 	c #FB8C00",
"{ 	c #E68400",
"] 	c #8E6200",
"^ 	c #264000",
"/ 	c #731700",
"( 	c #A00D00",
"_ 	c #042D00",
": 	c #785A00",
"< 	c #F98B00",
"[ 	c #E58400",
"} 	c #E68300",
"| 	c #E37C00",
"1 	c #E21C00",
"2 	c #D11800",
"3 	c #093100",
"4 	c #103100",
"5 	c #092E00",
"6 	c #C07600",
"7 	c #E78400",
"8 	c #E88500",
"9 	c #E78800",
"0 	c #E06100",
"a 	c #D20A00",
"b 	c #D41400",
"c 	c #E58500",
"d 	c #DC8000",
"e 	c #163300",
"f 	c #032C00",
"g 	c #BC7400",
"h 	c #EB8600",
"i 	c #75565D",
"j 	c #665366",
"k 	c #E03D00",
"l 	c #D20900",
"m 	c #D31200",
"n 	c #DE8100",
"o 	c #0C3000",
"p 	c #715700",
"q 	c #E78500",
"r 	c #FF8F00",
"s 	c #2C3B97",
"t 	c #1725A6",
"u 	c #EB0C00",
"v 	c #D51000",
"w 	c #E58000",
"x 	c #E58300",
"y 	c #A46B00",
"z 	c #082E00",
"A 	c #F58A00",
"B 	c #EE8600",
"C 	c #6C5364",
"D 	c #0026BC",
"E 	c #002CC5",
"F 	c #002EC4",
"G 	c #0727B3",
"H 	c #624571",
"I 	c #B56F20",
"J 	c #313E00",
"K 	c #725700",
"L 	c #EC8600",
"M 	c #414382",
"N 	c #012DBF",
"O 	c #0B29B6",
"P 	c #0E2AB3",
"Q 	c #052FBA",
"R 	c #0F2FA9",
"S 	c #0028D0",
"T 	c #273A9A",
"U 	c #EE8700",
"V 	c #9F6800",
"W 	c #072E00",
"X 	c #BE7500",
"Y 	c #EF8000",
"Z 	c #0025DA",
"` 	c #1028AF",
" .	c #EB0B00",
"..	c #2C2598",
"+.	c #1335A9",
"@.	c #FF9E00",
"#.	c #D68A06",
"$.	c #BF8123",
"%.	c #E79200",
"&.	c #E89200",
"*.	c #F88B00",
"=.	c #002900",
"-.	c #E68600",
";.	c #E16800",
">.	c #DE0800",
",.	c #0030D4",
"'.	c #002CBF",
").	c #88174A",
"!.	c #1C27A5",
"~.	c #0F28B0",
"{.	c #B5061B",
"].	c #D80200",
"^.	c #D20500",
"/.	c #D10500",
"(.	c #D10400",
"_.	c #D72700",
":.	c #E78C00",
"<.	c #DA4100",
"[.	c #D20700",
"}.	c #D30E00",
"|.	c #981436",
"1.	c #0030D3",
"2.	c #002FC7",
"3.	c #002DC1",
"4.	c #0030D6",
"5.	c #711856",
"6.	c #DA0D00",
"7.	c #D82F00",
"8.	c #EC8700",
"9.	c #414400",
"0.	c #D72F00",
"a.	c #D51E00",
"b.	c #DC1B00",
"c.	c #AD2322",
"d.	c #1B2AA7",
"e.	c #0C2AB3",
"f.	c #7D1957",
"g.	c #062AB7",
"h.	c #0030CD",
"i.	c #AB3525",
"j.	c #E78A00",
"k.	c #EB8B00",
"l.	c #AC7229",
"m.	c #F69000",
"n.	c #F08E00",
"o.	c #2A3C9B",
"p.	c #1427A9",
"q.	c #DB0E00",
"r.	c #871853",
"s.	c #002DC0",
"t.	c #875F4D",
"u.	c #BF7500",
"v.	c #D67D0A",
"w.	c #0024D5",
"x.	c #0028C1",
"y.	c #6A516B",
"z.	c #1934A9",
"A.	c #0F29B0",
"B.	c #92153F",
"C.	c #032BBB",
"D.	c #002ACD",
"E.	c #BA721D",
"F.	c #735800",
"G.	c #D47D0B",
"H.	c #634E71",
"I.	c #0024CC",
"J.	c #0030C6",
"K.	c #002EC2",
"L.	c #002ACC",
"M.	c #4C4675",
"N.	c #F08800",
"O.	c #A06900",
"P.	c #F68B00",
"Q.	c #F27D00",
"R.	c #A80B24",
"S.	c #1928A8",
"T.	c #082FB5",
"U.	c #895B58",
"V.	c #B9711D",
"W.	c #333F00",
"X.	c #D41800",
"Y.	c #DA0E00",
"Z.	c #1C1BAC",
"`.	c #012BC0",
" +	c #A76C00",
".+	c #E68500",
"++	c #DB4100",
"@+	c #D30D00",
"#+	c #F08D00",
"$+	c #F08700",
"%+	c #E08200",
"&+	c #C27600",
"*+	c #E26F00",
"=+	c #D20600",
"-+	c #DD8100",
";+	c #173400",
">+	c #816100",
",+	c #DA1100",
"'+	c #9C6800",
")+	c #0B3000",
"!+	c #063400",
"~+	c #791400",
"{+	c #7B1300",
"]+	c #7E6300",
"^+	c #D97F00",
"/+	c #FF8D00",
"(+	c #EA8600",
"_+	c #906300",
":+	c #273B00",
"<+	c #0A2F00",
"[+	c #CC0400",
"}+	c #013500",
"|+	c #012C00",
"1+	c #0A3000",
"                                                                ",
"                                                                ",
"                                                                ",
"                                                                ",
"                            . . . .             +               ",
"                      . @ # $ % & * = - .     ;                 ",
"                  . . > , ' ) ! ! ~ { ] ^ / (                   ",
"                . _ : < [ { { { { { } | 1 2 3 4                 ",
"              . 5 6 7 { { { { 8 8 9 0 a b c d e 4               ",
"            . f g [ { { { { h i j k l m } { [ n o .             ",
"            . p q { { { { q r s t u v w } { { x y z             ",
"          . . A { { { { B C D E F G H I 8 { { { A J 4           ",
"          . K { { { { L M N O P Q R S T U { { { [ V o           ",
"          W X { { { } Y Z `  ...+.@.#.$.%.&.&.} { *.=           ",
"          =.) { { -.;.>.,.'.).!.~.{.].^./.(._.9 { ! & .         ",
"        . * ~ { :.<.[.}.|.1.2.3.3.2.4.5.6.7.:.{ { 8.9..         ",
"        . * ~ [ 0.a.a.a.a.b.c.d.e.f.g.h.i.:.{ { { 8.9..         ",
"          = ) { j.j.j.k.l.m.n.o.p.q.r.s.t.[ { { { ! & .         ",
"          W u.{ { { { v.w.x.y.z.A.B.C.D.E.{ { { { *.=           ",
"          . F.{ { { { G.H.I.J.3.s.K.L.M.N.{ { { [ O.o           ",
"          . . P.{ { { { 7 Q.R.S.T.U.V.N.{ { { { A W..           ",
"            . F.q { { { :.X.Y.Z.`.! { { { { { x  +W             ",
"            . f X x { .+++@+7.#+$+[ { { { { [ %+o .             ",
"              . $ &+} *+=+7.:.{ { { { { { x -+;+4               ",
"                . _ >+,+7.:.{ { { { { [ < '+)+4                 ",
"                  !+~+{+]+^+/+! ! ~ (+_+:+<+.                   ",
"                    [+}+@ |+1+% & * = - .                       ",
"                  ;         . . . .                             ",
"                                                                ",
"                                                                ",
"                                                                ",
"                                                                "};
