/* XPM */
static char * bitcoin64_xpm[] = {
"64 64 404 2",
"  	c None",
". 	c #CF0500",
"+ 	c #D10500",
"@ 	c #0F3100",
"# 	c #D00500",
"$ 	c #103100",
"% 	c #0E3000",
"& 	c #032C00",
"* 	c #082F00",
"= 	c #323F00",
"- 	c #484700",
"; 	c #544C00",
"> 	c #574D00",
", 	c #4D4A00",
"' 	c #3D4300",
") 	c #183400",
"! 	c #002B00",
"~ 	c #0B2F00",
"{ 	c #0F3200",
"] 	c #012C00",
"^ 	c #3B4300",
"/ 	c #896000",
"( 	c #D17C00",
"_ 	c #FB8C00",
": 	c #F18800",
"< 	c #EB8600",
"[ 	c #E98500",
"} 	c #EA8600",
"| 	c #EE8700",
"1 	c #F88B00",
"2 	c #A16A00",
"3 	c #5B4F00",
"4 	c #092E00",
"5 	c #0D3000",
"6 	c #073300",
"7 	c #741700",
"8 	c #B90700",
"9 	c #D60300",
"0 	c #042D00",
"a 	c #655300",
"b 	c #DB8000",
"c 	c #F08800",
"d 	c #E58400",
"e 	c #E68400",
"f 	c #E88500",
"g 	c #F68B00",
"h 	c #8E6200",
"i 	c #2C3700",
"j 	c #A20C00",
"k 	c #B20800",
"l 	c #BA0600",
"m 	c #282900",
"n 	c #052D00",
"o 	c #4F4A00",
"p 	c #E78400",
"q 	c #E78800",
"r 	c #DD6000",
"s 	c #DD0C00",
"t 	c #C50B00",
"u 	c #B60400",
"v 	c #2E2900",
"w 	c #0D3100",
"x 	c #AD6F00",
"y 	c #E68B00",
"z 	c #D93900",
"A 	c #D30800",
"B 	c #D30E00",
"C 	c #D20700",
"D 	c #D16000",
"E 	c #333F00",
"F 	c #203800",
"G 	c #E28300",
"H 	c #E47F00",
"I 	c #D41A00",
"J 	c #D30700",
"K 	c #DF6000",
"L 	c #E68500",
"M 	c #F58A00",
"N 	c #615100",
"O 	c #082E00",
"P 	c #253A00",
"Q 	c #E78700",
"R 	c #DF6400",
"S 	c #D30B00",
"T 	c #D20800",
"U 	c #DE5900",
"V 	c #E68600",
"W 	c #735800",
"X 	c #1A3600",
"Y 	c #CD7910",
"Z 	c #B9701F",
"` 	c #C57515",
" .	c #E78C00",
"..	c #D93D00",
"+.	c #D20900",
"@.	c #DD5300",
"#.	c #E68700",
"$.	c #665400",
"%.	c #0C3000",
"&.	c #092F00",
"*.	c #DA8000",
"=.	c #E78500",
"-.	c #624E6E",
";.	c #002BC7",
">.	c #002BC8",
",.	c #383A85",
"'.	c #DA1F00",
").	c #D30900",
"!.	c #DB4B00",
"~.	c #F48A00",
"{.	c #3C4300",
"].	c #9E6900",
"^.	c #675069",
"/.	c #002DBF",
"(.	c #002DC0",
"_.	c #401E80",
":.	c #D70E00",
"<.	c #D30A00",
"[.	c #DA4500",
"}.	c #E78900",
"|.	c #103200",
"1.	c #3F4400",
"2.	c #F28900",
"3.	c #F88D00",
"4.	c #664E65",
"5.	c #421D7C",
"6.	c #E40E00",
"7.	c #D60E00",
"8.	c #D20B00",
"9.	c #D93E00",
"0.	c #E78A00",
"a.	c #A26B00",
"b.	c #022C00",
"c.	c #D47D00",
"d.	c #9F652C",
"e.	c #3D407B",
"f.	c #0021BD",
"g.	c #002AC8",
"h.	c #002EC6",
"i.	c #0824AC",
"j.	c #521C6F",
"k.	c #902434",
"l.	c #EB8B00",
"m.	c #ED8700",
"n.	c #2F3E00",
"o.	c #554D00",
"p.	c #E58300",
"q.	c #D97D04",
"r.	c #18319F",
"s.	c #002DC7",
"t.	c #002DC3",
"u.	c #0025D1",
"v.	c #393E7F",
"w.	c #A66827",
"x.	c #E98600",
"y.	c #AF6F00",
"z.	c #C37700",
"A.	c #DE8000",
"B.	c #0029BE",
"C.	c #002EC1",
"D.	c #3E4182",
"E.	c #F98B00",
"F.	c #1F3700",
"G.	c #44427B",
"H.	c #002CC6",
"I.	c #5C1A68",
"J.	c #3D2086",
"K.	c #20379D",
"L.	c #624D65",
"M.	c #092BA5",
"N.	c #0029D1",
"O.	c #002DC1",
"P.	c #002CC5",
"Q.	c #A1672C",
"R.	c #7B5B00",
"S.	c #6A5400",
"T.	c #EF8800",
"U.	c #0020D0",
"V.	c #0429B8",
"W.	c #D00B01",
"X.	c #D60F00",
"Y.	c #641C65",
"Z.	c #3F4380",
"`.	c #EC8700",
" +	c #F48B00",
".+	c #D47900",
"++	c #7E594D",
"@+	c #082AA2",
"#+	c #F38800",
"$+	c #C97A00",
"%+	c #0A2F00",
"&+	c #A56B00",
"*+	c #E78B00",
"=+	c #CA4403",
"-+	c #0030D2",
";+	c #621A64",
">+	c #D40E00",
",+	c #3F4680",
"'+	c #EC9100",
")+	c #E78F00",
"!+	c #F39400",
"~+	c #E68E00",
"{+	c #FD8D00",
"]+	c #E68300",
"^+	c #E58500",
"/+	c #D62500",
"(+	c #C70700",
"_+	c #0032D3",
":+	c #22249D",
"<+	c #D70900",
"[+	c #DF0F00",
"}+	c #681B62",
"|+	c #D70C00",
"1+	c #D20C00",
"2+	c #D30C00",
"3+	c #D51F00",
"4+	c #424500",
"5+	c #FC8D00",
"6+	c #E27200",
"7+	c #D31000",
"8+	c #D30F00",
"9+	c #DE0D00",
"0+	c #0D25AC",
"a+	c #012DBF",
"b+	c #002FD1",
"c+	c #15229F",
"d+	c #1326AA",
"e+	c #1A26A4",
"f+	c #73185A",
"g+	c #821445",
"h+	c #AD0C17",
"i+	c #E00C00",
"j+	c #D62100",
"k+	c #E68900",
"l+	c #243A00",
"m+	c #F58900",
"n+	c #DB4D00",
"o+	c #D20E00",
"p+	c #AD0E1C",
"q+	c #002FCE",
"r+	c #002EC2",
"s+	c #0030CB",
"t+	c #841240",
"u+	c #DC0E00",
"v+	c #D62000",
"w+	c #785A00",
"x+	c #2D3D00",
"y+	c #D72800",
"z+	c #A80F20",
"A+	c #0726B2",
"B+	c #0031CC",
"C+	c #0030C7",
"D+	c #4F1668",
"E+	c #DB0E00",
"F+	c #D52000",
"G+	c #E37500",
"H+	c #D31200",
"I+	c #DF0D00",
"J+	c #B00C15",
"K+	c #7E164A",
"L+	c #561B6B",
"M+	c #1926A6",
"N+	c #002CC0",
"O+	c #0029C6",
"P+	c #0032D1",
"Q+	c #980F2D",
"R+	c #E27800",
"S+	c #D73100",
"T+	c #D83700",
"U+	c #DC3800",
"V+	c #662E65",
"W+	c #451F7B",
"X+	c #E40C00",
"Y+	c #C00A06",
"Z+	c #451C79",
"`+	c #322789",
" @	c #ED8B00",
".@	c #FC8C00",
"+@	c #EE8900",
"@@	c #E88600",
"#@	c #675169",
"$@	c #3F1F80",
"%@	c #E30B00",
"&@	c #0028AF",
"*@	c #554964",
"=@	c #79574F",
"-@	c #E48200",
";@	c #EB8700",
">@	c #D70A00",
",@	c #002FD2",
"'@	c #092CA4",
")@	c #434500",
"!@	c #0023CF",
"~@	c #0024CF",
"{@	c #41427A",
"]@	c #9C6530",
"^@	c #E88300",
"/@	c #715464",
"(@	c #411F7F",
"_@	c #D80B00",
":@	c #3D1F84",
"<@	c #4E4777",
"[@	c #6B5400",
"}@	c #79564F",
"|@	c #0025D2",
"1@	c #0028BC",
"2@	c #1327AA",
"3@	c #3C1D7F",
"4@	c #002CC9",
"5@	c #002CCB",
"6@	c #A76923",
"7@	c #CA7A00",
"8@	c #233900",
"9@	c #F78A00",
"0@	c #EA8500",
"a@	c #855C42",
"b@	c #0025C4",
"c@	c #002DC2",
"d@	c #012EBF",
"e@	c #2E3988",
"f@	c #F18900",
"g@	c #7E5C00",
"h@	c #0E3100",
"i@	c #C67800",
"j@	c #EE8600",
"k@	c #8F5E42",
"l@	c #14319C",
"m@	c #0028D0",
"n@	c #002CCA",
"o@	c #2F3988",
"p@	c #213800",
"q@	c #564D00",
"r@	c #D27C01",
"s@	c #800F44",
"t@	c #4A1D76",
"u@	c #0C28B0",
"v@	c #0024D1",
"w@	c #0023B6",
"x@	c #45437B",
"y@	c #A96921",
"z@	c #B17000",
"A@	c #072E00",
"B@	c #D67F00",
"C@	c #D83300",
"D@	c #D80F00",
"E@	c #6A1C62",
"F@	c #3A407E",
"G@	c #F18600",
"H@	c #F48900",
"I@	c #434600",
"J@	c #DF6200",
"K@	c #A76D00",
"L@	c #A26A00",
"M@	c #D40F00",
"N@	c #5C1570",
"O@	c #0028D3",
"P@	c #0028D4",
"Q@	c #333E8F",
"R@	c #123200",
"S@	c #DC8000",
"T@	c #D52400",
"U@	c #E58600",
"V@	c #E17F00",
"W@	c #E48100",
"X@	c #1E3700",
"Y@	c #DD5100",
"Z@	c #6D5600",
"`@	c #0B3000",
" #	c #283B00",
".#	c #E37A00",
"+#	c #E68A00",
"@#	c #233800",
"##	c #E18300",
"$#	c #D41800",
"%#	c #D61F00",
"&#	c #645200",
"*#	c #B57200",
"=#	c #ED8900",
"-#	c #DA4100",
";#	c #374100",
">#	c #714500",
",#	c #D40700",
"'#	c #926400",
")#	c #0A3200",
"!#	c #AE0900",
"~#	c #B00800",
"{#	c #A61100",
"]#	c #E18800",
"^#	c #956500",
"/#	c #063400",
"(#	c #781500",
"_#	c #960E00",
":#	c #083300",
"<#	c #012B00",
"[#	c #404500",
"}#	c #8B6100",
"|#	c #D97F00",
"1#	c #F88A00",
"2#	c #A76C00",
"3#	c #5C4F00",
"4#	c #9F0C00",
"5#	c #313F00",
"6#	c #193500",
"7#	c #CF0400",
"                                                                                                                                ",
"                                                                                                                                ",
"                                                                                                                                ",
"                                                                                                                                ",
"                                                                                                                                ",
"                                                                                                                                ",
"                                                                                                                                ",
"                                                                                                    .                           ",
"                                                                                                  +                             ",
"                                                    @ @ @ @ @ @ @ @ @ @ @ @                   # #                               ",
"                                              @ @ @ @ @ @ @ @ $ $ @ @ @ @ @ @ @ @           # #                                 ",
"                                          @ @ @ @ @ % & * = - ; > , ' ) ! ~ $ @ @ @ @     + #                                   ",
"                                      { @ @ @ @ ] ^ / ( _ : < [ [ } | 1 < 2 3 4 5 @ 6 7 8 9                                     ",
"                                    @ @ @ $ 0 a b c d e e e e e e e e e e e f g h i j k l m                                     ",
"                                  @ @ @ n o e p e e e e e e e e e e e e e e e q r s t u v @ @ @                                 ",
"                                @ @ $ w x | e e e e e e e e e e e e e e e e y z A B C D E 5 @ @ @                               ",
"                              @ @ $ F G d e e e e e e e e e e e e e e e e H I B B J K L M N O @ @ @                             ",
"                            @ @ $ P < d e e e e e e e e e e e e e e e Q R S B B T U V e e : W O @ @                             ",
"                          @ @ $ X < e e e e e e e e e e e e Y Z Z `  ...T B B +.@.#.e e e e : $.%.@ @                           ",
"                          @ @ &.*.d e e e e e e e e e e e =.-.;.>.,.'.B B B ).!.q e e e e e e ~.{.$ @ @                         ",
"                        @ @ O ].d e e e e e e e e e e e e =.^./.(._.:.B B <.[.}.e e e e e e e e } |.@ @                         ",
"                      @ @ $ 1.2.e e e e e e e e e e e d < 3.4./.(.5.6.7.8.9.0.e e e e e e e e e d a.O @ @                       ",
"                      @ @ b.c.e e e e e e e e e e e 2.d.e.f.g.(.(.h.i.j.k.l.m.d e e e e e e e e e M n.@ @                       ",
"                    { @ @ o.} e e e e e e e e e p.q.r.s./.(.(.(.(.(.(./.t.u.v.w.x.e e e e e e e e d y.O @ @                     ",
"                    @ @ n z.e e e e e e e e e e A.B./.(.(.(.C.(.(.(.(.(.(.(./.D.< e e e e e e e e e E.F.@ @                     ",
"                    @ @ F 1 e e e e e e e e e < G./.(./.H.I.J./.(.K.L.M.N.O.P.Q.d e e e e e e e e e e R.@ @ @                   ",
"                    @ @ S.p e e e e e e e e e T.U.(.(.V.W.X.Y./.(.Z.`. +.+++@+#+e e e e e e e e e e e $+0 @ @                   ",
"                  @ @ %+&+e e e e e e e e e *+=+-+(./.;+>+>+Y./.(.,+'+)+)+)+!+~+)+)+)+)+)+)+e e e e e {+5 @ @                   ",
"                  @ @ ! d e e e e e e e ]+^+/+(+_+(.(.:+<+[+}+/.(._.|+1+1+1+1+1+1+1+1+1+2+3+V e e e e m.4+@ @                   ",
"                  @ @ &.5+e e e e e e L 6+7+8+9+0+(.(.a+b+c+d+(.(.e+f+g+h+i+B B B B B B j+k+e e e e e p N $ @                   ",
"                  @ @ l+m+e e e e e *+n+C B B o+p+q+(.(.(.(.(.(.(.(./.r+s+B.t+u+B B B v+}.e e e e e e e w+@ @                   ",
"                  @ @ x+2.e e e ]+#.y+2+B B B B >+z+A+B+C./.(.(.(.(.(.(.(.(.C+D+E+B F+}.e e e e e e e d / % @                   ",
"                  @ @ x+2.e e L G+H+8+B B B B B B 8+I+J+K+L+M+(.(.N+O+P+(.(.(.s+Q+j+k+e e e e e e e e d / % @                   ",
"                  @ @ P m+e e R+S+T+T+T+T+T+T+T+T+T+T+T+T+U+V+/.(.W+X+Y+Z+r+(.(.`+ @e e e e e e e e e e w+@ @                   ",
"                  @ @ ~ .@e e L L L L L L L L L +@V L L L @@#@/.(.$@:.B %@g.(.(.&@g e e e e e e e e e p N $ @                   ",
"                  @ @ ! d e e e e e e e e e e [ *@=@-@;@d =.^./.(.$@:.B >@,@(.(.'@ +e e e e e e e e e m.)@@ @                   ",
"                  @ @ %+&+e e e e e e e e e e p.!@(.~@{@]@^@/@/.(.(@u+_@:@(.(./.<@x.e e e e e e e e e {+5 @ @                   ",
"                    @ @ [@p e e e e e e e e e }@(.(.(./.P.|@1@(.(.2@3@4@(.(.(.5@6@e e e e e e e e e e 7@0 @ @                   ",
"                    @ @ 8@9@e e e e e e e e 0@a@b@c@(.(.(.(.(.(.(.(.(.(.(.(.d@e@f@e e e e e e e e e e g@h@@ @                   ",
"                    @ @ 0 i@e e e e e e e e e e j@k@l@m@r+/.(.(.(.(.(.(./.n@o@0@e e e e e e e e e e 1 p@@ @                     ",
"                    @ @ @ q@} e e e e e e e e e e e ~.r@s@t@u@(.(.H.v@w@x@y@f@e e e e e e e e e e d z@A@@ @                     ",
"                      @ @ b.B@e e e e e e e e e e e }.C@o+D@E@/.(.F@G@g < d e e e e e e e e e e e H@= @ @                       ",
"                      @ @ $ I@: e e e e e e e e e ]+J@+.B >+Y./.(.Z.< e e e e e e e e e e e e e d K@A@@ @                       ",
"                        @ @ A@L@d e e e e e e e e p.S B B M@N@O@P@Q@< e e e e e e e e e e e e e < R@@ @                         ",
"                          @ @ &.S@d e e e e e e  .T@8+B B v+U@V@V@W@e e e e e e e e e e e e e ~.' $ @ @                         ",
"                          @ @ $ X@m.e e e e e e Y@2+B B v+k+e e e e e e e e e e e e e e e e T.Z@`@@ @                           ",
"                            @ @ $  #m.e e e e .#T B B 3++#e e e e e e e e e e e e e e e e c R.A@@ @                             ",
"                              @ @ $ @###p.e  .$#B B %#+#e e e e e e e e e e e e e e e e ~.&#A@@ @ @                             ",
"                                @ @ $ h@*#=#-#B B 3++#e e e e e e e e e e e e e e e d =.;#%.@ @ @                               ",
"                                  @ @ @ n >#,#B 3+0.e e e e e e e e e e e e e e d 1 '#~ $ @ @ @                                 ",
"                                    @ @ )#!#~#{#]#| d e e e e e e e e e e e f 1 ^#F %.@ @ @                                     ",
"                                      /#(#~#_#:#<#[#}#|#_ : < [ [ } | 1#2.2#3#5 %.@ @ @ @                                       ",
"                                        . 4#:#@ @ @ 5 b.`@5#- ; > , ' 6#! %+$ @ @ @ @                                           ",
"                                      # #     @ @ @ @ @ @ @ @ $ $ @ @ @ @ @ @ @ @                                               ",
"                                    + 7#            @ @ @ @ @ @ @ @ @ @ @ @                                                     ",
"                                    #                                                                                           ",
"                                  .                                                                                             ",
"                                .                                                                                               ",
"                                                                                                                                ",
"                                                                                                                                ",
"                                                                                                                                ",
"                                                                                                                                ",
"                                                                                                                                ",
"                                                                                                                                "};
