/* XPM */
static char * bitcoin16_xpm[] = {
"16 16 84 1",
" 	c None",
".	c #002900",
"+	c #062E00",
"@	c #0B2F00",
"#	c #002800",
"$	c #002B00",
"%	c #584D00",
"&	c #D57E00",
"*	c #FF8F00",
"=	c #FE8D00",
"-	c #E18800",
";	c #931C00",
">	c #2A2500",
",	c #002A00",
"'	c #A06900",
")	c #EA8500",
"!	c #E68400",
"~	c #CF7B14",
"{	c #CA6E16",
"]	c #D31100",
"^	c #E16F00",
"/	c #B97200",
"(	c #012B00",
"_	c #544C00",
":	c #EB8600",
"<	c #E58400",
"[	c #D77D0E",
"}	c #4F4985",
"|	c #471B85",
"1	c #BF571B",
"2	c #E78400",
"3	c #6D5500",
"4	c #CA7900",
"5	c #F78D00",
"6	c #0026CF",
"7	c #631D6E",
"8	c #56587A",
"9	c #5E5F73",
"0	c #F29800",
"a	c #E78A00",
"b	c #002700",
"c	c #FF9000",
"d	c #E47D00",
"e	c #DF1600",
"f	c #102BBC",
"g	c #2526A1",
"h	c #2C1D97",
"i	c #910A41",
"j	c #D70000",
"k	c #E37100",
"l	c #F78B00",
"m	c #1A3500",
"n	c #FF9300",
"o	c #DD5000",
"p	c #E15600",
"q	c #E95100",
"r	c #87494C",
"s	c #711B5C",
"t	c #1527B3",
"u	c #C66F17",
"v	c #E68300",
"w	c #CB7A00",
"x	c #001CDC",
"y	c #1A3AAE",
"z	c #28249B",
"A	c #0028D1",
"B	c #554C00",
"C	c #F27400",
"D	c #720B58",
"E	c #625174",
"F	c #E98500",
"G	c #6E5600",
"H	c #A16900",
"I	c #EA8A00",
"J	c #D31000",
"K	c #EC7C00",
"L	c #EE8700",
"M	c #BA7300",
"N	c #002D00",
"O	c #971E00",
"P	c #D17500",
"Q	c #FF8D00",
"R	c #E28300",
"S	c #695400",
"                ",
"                ",
"      .+@#      ",
"    $%&*=-;>    ",
"   ,')!~{]^/(   ",
"   _:<[}|1223   ",
"  $4!567890a:b  ",
"  #cdefghijklm  ",
"  .nopqrstuvlm  ",
"  $w!!xyzA)!:b  ",
"   B:vCDEF<2G   ",
"   ,HIJKL!2M(   ",
"    NOPQ=RS$    ",
"      #+@b      ",
"                ",
"                "};
